<svg width="226" height="361" viewBox="0 0 226 361" fill="none" xmlns="http://www.w3.org/2000/svg">
<path d="M113.005 316.382C109.559 316.309 106.281 314.866 103.903 312.371C93.2357 301.664 0.00445557 203.825 0.00445557 113.001C0.00445557 72.6276 21.5418 35.3235 56.5052 15.138C91.4656 -5.04601 134.54 -5.04601 169.498 15.138C204.461 35.3242 225.999 72.6262 225.999 113.001C225.999 203.825 132.769 301.666 122.143 312.535V312.533C119.729 314.983 116.437 316.367 112.999 316.384L113.005 316.382ZM113.005 23.9824C89.4177 24.0244 66.8056 33.42 50.1352 50.1068C33.4619 66.7944 24.086 89.4116 24.0666 113.002C24.0666 182.414 89.6276 261.368 113.007 287.074C136.424 261.17 201.948 182.416 201.948 113.002C201.928 89.4116 192.553 66.7944 175.879 50.1068C159.209 33.4192 136.598 24.0239 113.009 23.9824H113.005Z" fill="white"/>
<path d="M113.006 166.933C99.0428 166.933 85.6505 161.386 75.7768 151.513C65.9032 141.639 60.3567 128.247 60.3567 114.284C60.3567 100.321 65.9033 86.9283 75.7768 77.0547C85.6505 67.181 99.0428 61.6345 113.006 61.6345C126.969 61.6345 140.361 67.1811 150.235 77.0547C160.108 86.9283 165.655 100.321 165.655 114.284C165.644 128.244 160.094 141.63 150.223 151.502C140.352 161.373 126.966 166.925 113.005 166.933L113.006 166.933ZM113.006 85.6895V85.6923C105.423 85.6923 98.1506 88.7048 92.7888 94.0666C87.4268 99.4258 84.4146 106.698 84.4146 114.281C84.4146 121.864 87.427 129.136 92.7888 134.498C98.1508 139.86 105.424 142.872 113.006 142.872C120.588 142.872 127.861 139.859 133.223 134.498C138.585 129.136 141.597 121.863 141.597 114.281C141.597 106.698 138.585 99.4255 133.223 94.0666C127.861 88.7046 120.588 85.6923 113.006 85.6923V85.6895Z" fill="white"/>
<path d="M190.554 256.153C185.743 263.21 180.89 269.866 176.158 276.202C192.196 283.139 201.941 292.24 201.941 300.822C201.941 317.865 163.926 336.91 113.001 336.91C62.0745 336.91 24.06 317.861 24.06 300.822C24.06 292.201 33.7238 283.097 49.8436 276.202C45.1529 269.987 40.3001 263.33 35.4474 256.153C13.3923 267.019 0 282.697 0 300.702C0 334.986 48.5597 360.85 113 360.85C177.44 360.85 226 334.986 226 300.702C226 282.658 212.608 266.98 190.553 256.153H190.554Z" fill="white"/>
</svg>
