<svg width="294" height="361" viewBox="0 0 294 361" fill="none" xmlns="http://www.w3.org/2000/svg">
<mask id="path-1-inside-1_2_199" fill="white">
<path d="M184.763 37.6992C184.658 27.6176 180.561 17.9909 173.372 10.9237C166.181 3.85953 156.484 -0.0685402 146.403 0.000905382C136.324 0.0701072 126.683 4.13363 119.591 11.2972C112.499 18.4607 108.538 28.1462 108.571 38.225C108.607 48.3067 112.635 57.9618 119.776 65.0785C126.915 72.1953 136.584 76.1898 146.665 76.1927C156.837 76.1927 166.587 72.1236 173.745 64.8936C180.901 57.6634 184.867 47.8723 184.762 37.6999L184.763 37.6992ZM116.112 37.6992H116.109C116.214 29.7463 119.456 22.159 125.13 16.5842C130.802 11.0121 138.447 7.90353 146.4 7.93967C154.353 7.97566 161.968 11.1478 167.592 16.7727C173.214 22.3947 176.389 30.0127 176.425 37.965C176.461 45.9179 173.353 53.5633 167.781 59.2352C162.206 64.907 154.619 68.1483 146.666 68.2539C138.597 68.2567 130.865 65.0235 125.199 59.2827C119.53 53.5389 116.399 45.7663 116.507 37.6999L116.112 37.6992Z"/>
</mask>
<path d="M184.763 37.6992C184.658 27.6176 180.561 17.9909 173.372 10.9237C166.181 3.85953 156.484 -0.0685402 146.403 0.000905382C136.324 0.0701072 126.683 4.13363 119.591 11.2972C112.499 18.4607 108.538 28.1462 108.571 38.225C108.607 48.3067 112.635 57.9618 119.776 65.0785C126.915 72.1953 136.584 76.1898 146.665 76.1927C156.837 76.1927 166.587 72.1236 173.745 64.8936C180.901 57.6634 184.867 47.8723 184.762 37.6999L184.763 37.6992ZM116.112 37.6992H116.109C116.214 29.7463 119.456 22.159 125.13 16.5842C130.802 11.0121 138.447 7.90353 146.4 7.93967C154.353 7.97566 161.968 11.1478 167.592 16.7727C173.214 22.3947 176.389 30.0127 176.425 37.965C176.461 45.9179 173.353 53.5633 167.781 59.2352C162.206 64.907 154.619 68.1483 146.666 68.2539C138.597 68.2567 130.865 65.0235 125.199 59.2827C119.53 53.5389 116.399 45.7663 116.507 37.6999L116.112 37.6992Z" fill="white"/>
<path d="M184.763 37.6992L641.927 498.353L836.589 305.166L833.728 30.9281L184.763 37.6992ZM173.372 10.9237L628.361 -451.88L628.27 -451.969L628.179 -452.058L173.372 10.9237ZM146.403 0.000905382L150.859 648.986L150.866 648.986L150.873 648.986L146.403 0.000905382ZM108.571 38.225L-540.425 40.3697L-540.425 40.4556L-540.425 40.5415L108.571 38.225ZM119.776 65.0785L577.981 -394.54L577.94 -394.581L577.898 -394.622L119.776 65.0785ZM146.665 76.1927L146.482 725.193L146.574 725.193H146.665V76.1927ZM173.745 64.8936L634.93 521.522L634.977 521.474L635.025 521.426L173.745 64.8936ZM184.762 37.6999L-272.402 -422.954L-467.03 -229.8L-464.203 44.3908L184.762 37.6999ZM116.112 37.6992L117.274 -611.3L116.693 -611.301H116.112V37.6992ZM116.109 37.6992L-532.834 29.116L-541.532 686.699H116.109V37.6992ZM125.13 16.5842L-329.698 -446.376L-329.704 -446.371L-329.709 -446.366L125.13 16.5842ZM146.4 7.93967L143.451 656.933L143.463 656.933L146.4 7.93967ZM167.592 16.7727L-291.34 475.665L-291.33 475.675L-291.32 475.685L167.592 16.7727ZM176.425 37.965L825.419 35.0285L825.419 35.0155L176.425 37.965ZM167.781 59.2352L630.628 514.178L630.689 514.116L630.75 514.054L167.781 59.2352ZM146.666 68.2539L146.888 717.254L151.085 717.252L155.281 717.197L146.666 68.2539ZM125.199 59.2827L-336.709 515.179L-336.708 515.18L125.199 59.2827ZM116.507 37.6999L765.449 46.3654L774.216 -610.123L117.669 -611.299L116.507 37.6999ZM833.728 30.9281C831.83 -150.91 757.933 -324.495 628.361 -451.88L-281.616 473.727C-396.811 360.477 -462.515 206.146 -464.202 44.4703L833.728 30.9281ZM628.179 -452.058C498.541 -579.407 323.709 -650.236 141.932 -648.984L150.873 648.986C-10.7402 650.099 -166.178 587.126 -281.434 473.906L628.179 -452.058ZM141.947 -648.984C-39.9729 -647.735 -213.815 -574.399 -341.62 -445.305L580.802 467.9C467.181 582.666 312.621 647.875 150.859 648.986L141.947 -648.984ZM-341.62 -445.305C-469.637 -315.996 -541.026 -141.307 -540.425 40.3697L757.568 36.0804C758.101 197.6 694.636 352.917 580.802 467.9L-341.62 -445.305ZM-540.425 40.5415C-539.776 222.263 -467.162 396.406 -338.347 524.779L577.898 -394.622C692.431 -280.483 756.99 -125.65 757.567 35.9086L-540.425 40.5415ZM-338.429 524.697C-209.569 653.16 -35.1558 725.142 146.482 725.193L146.847 -572.807C308.324 -572.762 463.399 -508.77 577.981 -394.54L-338.429 524.697ZM146.665 725.193C330.202 725.193 505.967 651.772 634.93 521.522L-287.44 -391.735C-172.793 -507.525 -16.5276 -572.807 146.665 -572.807V725.193ZM635.025 521.426C764.104 391.005 835.619 214.41 833.728 31.0091L-464.203 44.3908C-465.884 -118.665 -402.302 -275.678 -287.535 -391.639L635.025 521.426ZM641.926 498.354L641.927 498.353L-272.401 -422.955L-272.402 -422.954L641.926 498.354ZM116.112 -611.301H116.109V686.699H116.112V-611.301ZM765.052 46.2824C762.894 209.473 696.358 365.184 579.968 479.534L-329.709 -446.366C-457.447 -320.866 -530.466 -149.98 -532.834 29.116L765.052 46.2824ZM579.958 479.545C463.582 593.876 306.714 657.675 143.451 656.933L149.349 -641.054C-29.8199 -641.868 -201.979 -571.852 -329.698 -446.376L579.958 479.545ZM143.463 656.933C-19.5828 656.195 -175.888 591.127 -291.34 475.665L626.525 -442.119C499.824 -568.831 328.289 -640.244 149.336 -641.054L143.463 656.933ZM-291.32 475.685C-406.733 360.272 -471.827 203.998 -472.568 40.9144L825.419 35.0155C824.605 -143.972 753.162 -315.482 626.504 -442.14L-291.32 475.685ZM-472.568 40.9015C-473.307 -122.352 -409.512 -279.212 -295.189 -395.584L630.75 514.054C756.218 386.338 826.229 214.188 825.419 35.0285L-472.568 40.9015ZM-295.067 -395.708C-180.748 -512.013 -25.1013 -578.523 138.05 -580.689L155.281 717.197C334.339 714.819 505.16 641.827 630.628 514.178L-295.067 -395.708ZM146.443 -580.746C312.16 -580.803 470.85 -514.404 587.106 -396.615L-336.708 515.18C-209.119 644.451 -34.9675 717.316 146.888 717.254L146.443 -580.746ZM587.108 -396.614C703.342 -278.846 767.662 -119.326 765.449 46.3654L-532.435 29.0345C-534.863 210.859 -464.282 385.924 -336.709 515.179L587.108 -396.614ZM117.669 -611.299L117.274 -611.3L114.949 686.698L115.345 686.699L117.669 -611.299Z" fill="white" mask="url(#path-1-inside-1_2_199)"/>
<mask id="path-3-inside-2_2_199" fill="white">
<path d="M291.511 352.386C292.861 349.856 293.501 347.008 293.363 344.143C293.221 341.278 292.308 338.504 290.719 336.115L252.226 278.576C249.242 274.047 244.154 271.354 238.735 271.434H182.781V219.845H199.051C204.314 219.845 209.36 217.755 213.08 214.035C216.801 210.312 218.893 205.266 218.893 200.003V162.7C218.893 136.827 205.089 112.919 182.681 99.9812C160.273 87.0459 132.667 87.0459 110.259 99.9812C87.8514 112.919 74.0466 136.827 74.0466 162.7V200.003C74.0466 205.266 76.1365 210.312 79.8596 214.035C83.5799 217.755 88.626 219.845 93.8883 219.845H110.159V314.291C110.159 315.343 110.577 316.353 111.322 317.095C112.066 317.84 113.074 318.258 114.126 318.258H178.81C179.862 318.258 180.872 317.84 181.617 317.095C182.362 316.353 182.779 315.343 182.779 314.291V279.369H238.733C241.443 279.33 243.987 280.676 245.479 282.94L283.972 340.48C285.553 342.877 285.716 345.941 284.398 348.491C283.081 351.043 280.49 352.685 277.622 352.784H15.7129C12.7732 352.826 10.0494 351.242 8.63488 348.663C7.22315 346.086 7.35049 342.938 8.96705 340.48L47.4598 282.94C48.9518 280.676 51.4956 279.331 54.2056 279.369H108.969V271.433H54.601C49.3195 271.486 44.4116 274.166 41.5076 278.575L2.61597 336.115C0.515023 339.307 -0.365242 343.149 0.138522 346.936C0.639544 350.722 2.49139 354.202 5.35361 356.735C8.21307 359.267 11.8918 360.682 15.7116 360.721H277.621C280.469 360.707 283.265 359.923 285.706 358.459C288.15 356.992 290.155 354.894 291.508 352.386L291.511 352.386ZM174.842 310.323H118.49V149.606H110.554V212.305H94.283C91.1274 212.305 88.0991 211.051 85.8652 208.818C83.6342 206.586 82.3802 203.558 82.3802 200.4V162.701C82.3802 139.662 94.6706 118.376 114.623 106.855C134.572 95.337 159.156 95.337 179.108 106.855C199.057 118.376 211.351 139.662 211.351 162.701V200.004C211.351 203.163 210.097 206.191 207.863 208.422C205.629 210.656 202.603 211.91 199.445 211.91H182.778V149.606H174.842L174.842 310.323Z"/>
</mask>
<path d="M291.511 352.386C292.861 349.856 293.501 347.008 293.363 344.143C293.221 341.278 292.308 338.504 290.719 336.115L252.226 278.576C249.242 274.047 244.154 271.354 238.735 271.434H182.781V219.845H199.051C204.314 219.845 209.36 217.755 213.08 214.035C216.801 210.312 218.893 205.266 218.893 200.003V162.7C218.893 136.827 205.089 112.919 182.681 99.9812C160.273 87.0459 132.667 87.0459 110.259 99.9812C87.8514 112.919 74.0466 136.827 74.0466 162.7V200.003C74.0466 205.266 76.1365 210.312 79.8596 214.035C83.5799 217.755 88.626 219.845 93.8883 219.845H110.159V314.291C110.159 315.343 110.577 316.353 111.322 317.095C112.066 317.84 113.074 318.258 114.126 318.258H178.81C179.862 318.258 180.872 317.84 181.617 317.095C182.362 316.353 182.779 315.343 182.779 314.291V279.369H238.733C241.443 279.33 243.987 280.676 245.479 282.94L283.972 340.48C285.553 342.877 285.716 345.941 284.398 348.491C283.081 351.043 280.49 352.685 277.622 352.784H15.7129C12.7732 352.826 10.0494 351.242 8.63488 348.663C7.22315 346.086 7.35049 342.938 8.96705 340.48L47.4598 282.94C48.9518 280.676 51.4956 279.331 54.2056 279.369H108.969V271.433H54.601C49.3195 271.486 44.4116 274.166 41.5076 278.575L2.61597 336.115C0.515023 339.307 -0.365242 343.149 0.138522 346.936C0.639544 350.722 2.49139 354.202 5.35361 356.735C8.21307 359.267 11.8918 360.682 15.7116 360.721H277.621C280.469 360.707 283.265 359.923 285.706 358.459C288.15 356.992 290.155 354.894 291.508 352.386L291.511 352.386ZM174.842 310.323H118.49V149.606H110.554V212.305H94.283C91.1274 212.305 88.0991 211.051 85.8652 208.818C83.6342 206.586 82.3802 203.558 82.3802 200.4V162.701C82.3802 139.662 94.6706 118.376 114.623 106.855C134.572 95.337 159.156 95.337 179.108 106.855C199.057 118.376 211.351 139.662 211.351 162.701V200.004C211.351 203.163 210.097 206.191 207.863 208.422C205.629 210.656 202.603 211.91 199.445 211.91H182.778V149.606H174.842L174.842 310.323Z" fill="white"/>
<path d="M291.511 352.386L204.309 995.501L651.484 1056.14L864.022 658.053L291.511 352.386ZM293.363 344.143L941.607 312.83L941.592 312.516L941.576 312.202L293.363 344.143ZM290.719 336.115L831.099 -23.3151L830.623 -24.0311L830.145 -24.746L290.719 336.115ZM252.226 278.576L-289.704 635.665L-288.458 637.555L-287.199 639.437L252.226 278.576ZM238.735 271.434V920.434H243.529L248.323 920.363L238.735 271.434ZM182.781 271.434H-466.219V920.434H182.781V271.434ZM182.781 219.845V-429.155H-466.219V219.845H182.781ZM213.08 214.035L671.992 672.947L672.078 672.862L672.163 672.777L213.08 214.035ZM182.681 99.9812L507.195 -462.061L507.172 -462.075L507.149 -462.088L182.681 99.9812ZM110.259 99.9812L-214.201 -462.092L-214.232 -462.075L-214.262 -462.057L110.259 99.9812ZM79.8596 214.035L-379.057 672.943L-379.053 672.947L79.8596 214.035ZM110.159 219.845H759.159V-429.155H110.159V219.845ZM111.322 317.095L570.234 -141.817L569.801 -142.25L569.367 -142.683L111.322 317.095ZM181.617 317.095L-276.441 -142.67L-276.875 -142.237L-277.309 -141.804L181.617 317.095ZM182.779 279.369V-369.631H-466.221V279.369H182.779ZM238.733 279.369V928.369H243.374L248.014 928.303L238.733 279.369ZM245.479 282.94L-296.455 640.023L-295.207 641.917L-293.946 643.802L245.479 282.94ZM283.972 340.48L825.792 -16.7769L824.601 -18.5832L823.398 -20.3816L283.972 340.48ZM284.398 348.491L-292.166 50.5398L-292.225 50.6535L-292.283 50.7673L284.398 348.491ZM277.622 352.784V1001.78H288.893L300.156 1001.39L277.622 352.784ZM15.7129 352.784V-296.216H11.1297L6.547 -296.151L15.7129 352.784ZM8.63488 348.663L-560.556 660.468L-560.498 660.574L-560.44 660.68L8.63488 348.663ZM8.96705 340.48L-530.458 -20.3814L-531.88 -18.2565L-533.285 -16.1205L8.96705 340.48ZM47.4598 282.94L586.885 643.802L588.142 641.923L589.386 640.035L47.4598 282.94ZM54.2056 279.369L44.9234 928.303L49.5643 928.369H54.2056V279.369ZM108.969 279.369V928.369H757.969V279.369H108.969ZM108.969 271.433H757.969V-377.567H108.969V271.433ZM54.601 271.433V-377.567H51.3696L48.1385 -377.534L54.601 271.433ZM41.5076 278.575L579.204 642.008L581.383 638.784L583.523 635.534L41.5076 278.575ZM2.61597 336.115L-535.08 -27.3182L-537.298 -24.0373L-539.475 -20.7297L2.61597 336.115ZM0.138522 346.936L643.531 261.809L643.502 261.584L643.472 261.358L0.138522 346.936ZM5.35361 356.735L435.675 -129.089L435.551 -129.198L435.428 -129.307L5.35361 356.735ZM15.7116 360.721L9.12614 1009.69L12.4188 1009.72H15.7116V360.721ZM277.621 360.721V1009.72H279.198L280.774 1009.71L277.621 360.721ZM285.706 358.459L619.528 915.023L619.617 914.97L619.707 914.916L285.706 358.459ZM291.508 352.386L378.71 -290.729L-66.3068 -351.07L-279.612 44.1285L291.508 352.386ZM174.842 310.323V959.323H823.842L823.842 310.323L174.842 310.323ZM118.49 310.323H-530.51V959.323H118.49V310.323ZM118.49 149.606H767.49V-499.394H118.49V149.606ZM110.554 149.606V-499.394H-538.446V149.606H110.554ZM110.554 212.305V861.305H759.554V212.305H110.554ZM114.623 106.855L-209.884 -455.192L-209.896 -455.184L-209.909 -455.177L114.623 106.855ZM179.108 106.855L503.674 -455.157L503.627 -455.184L503.58 -455.212L179.108 106.855ZM207.863 208.422L-250.765 -250.774L-250.907 -250.632L-251.049 -250.49L207.863 208.422ZM182.778 211.91H-466.222V860.91H182.778V211.91ZM182.778 149.606H831.778V-499.394H182.778V149.606ZM174.842 149.606V-499.394H-474.158L-474.158 149.606L174.842 149.606ZM864.022 658.053C920.645 551.999 947.396 432.687 941.607 312.83L-354.882 375.455C-360.394 261.329 -334.922 147.714 -281 46.7199L864.022 658.053ZM941.576 312.202C935.673 192.402 897.477 76.4795 831.099 -23.3151L-249.661 695.546C-312.861 600.529 -349.23 490.154 -354.851 376.084L941.576 312.202ZM830.145 -24.746L791.652 -82.2859L-287.199 639.437L-248.707 696.977L830.145 -24.746ZM794.156 -78.5136C669.296 -268.007 456.305 -380.851 229.147 -377.495L248.323 920.363C32.0033 923.559 -170.811 816.101 -289.704 635.665L794.156 -78.5136ZM238.735 -377.566H182.781V920.434H238.735V-377.566ZM831.781 271.434V219.845H-466.219V271.434H831.781ZM182.781 868.845H199.051V-429.155H182.781V868.845ZM199.051 868.845C376.396 868.845 546.531 798.409 671.992 672.947L-245.832 -244.877C-127.811 -362.899 32.231 -429.155 199.051 -429.155V868.845ZM672.163 672.777C797.269 547.578 867.893 377.621 867.893 200.003H-430.107C-430.107 32.9105 -363.668 -126.954 -246.002 -244.707L672.163 672.777ZM867.893 200.003V162.7H-430.107V200.003H867.893ZM867.893 162.7C867.893 -95.0647 730.369 -333.205 507.195 -462.061L-141.833 662.024C-320.19 559.043 -430.107 368.719 -430.107 162.7H867.893ZM507.149 -462.088C283.953 -590.933 8.98484 -590.928 -214.201 -462.092L434.719 662.055C256.35 765.02 36.5934 765.025 -141.787 662.05L507.149 -462.088ZM-214.262 -462.057C-437.42 -333.205 -574.953 -95.0745 -574.953 162.7H723.047C723.047 368.729 613.123 559.044 434.78 662.019L-214.262 -462.057ZM-574.953 162.7V200.003H723.047V162.7H-574.953ZM-574.953 200.003C-574.953 377.417 -504.469 547.529 -379.057 672.943L538.776 -244.873C656.742 -126.905 723.047 33.1144 723.047 200.003H-574.953ZM-379.053 672.947C-253.593 798.407 -83.4594 868.845 93.8883 868.845V-429.155C260.711 -429.155 420.753 -362.896 538.772 -244.877L-379.053 672.947ZM93.8883 868.845H110.159V-429.155H93.8883V868.845ZM-538.841 219.845V314.291H759.159V219.845H-538.841ZM-538.841 314.291C-538.841 487.136 -470.245 653.817 -346.723 776.873L569.367 -142.683C691.399 -21.1102 759.159 143.55 759.159 314.291H-538.841ZM-347.591 776.008C-225.384 898.214 -59.4043 967.258 114.126 967.258V-330.742C285.552 -330.742 449.517 -262.534 570.234 -141.817L-347.591 776.008ZM114.126 967.258H178.81V-330.742H114.126V967.258ZM178.81 967.258C351.86 967.258 517.991 898.552 640.542 775.994L-277.309 -141.804C-156.247 -262.873 7.86346 -330.742 178.81 -330.742V967.258ZM639.675 776.86C763.19 653.804 831.779 487.128 831.779 314.291H-466.221C-466.221 143.558 -398.467 -21.0971 -276.441 -142.67L639.675 776.86ZM831.779 314.291V279.369H-466.221V314.291H831.779ZM182.779 928.369H238.733V-369.631H182.779V928.369ZM248.014 928.303C29.4195 931.429 -175.949 822.911 -296.455 640.023L787.413 -74.1432C663.924 -261.559 453.467 -372.768 229.453 -369.564L248.014 928.303ZM-293.946 643.802L-255.454 701.342L823.398 -20.3816L784.905 -77.9215L-293.946 643.802ZM-257.848 697.737C-385.414 504.269 -398.743 256.777 -292.166 50.5398L860.962 646.442C970.175 435.106 956.519 181.486 825.792 -16.7769L-257.848 697.737ZM-292.283 50.7673C-186.049 -155.006 23.1126 -287.765 255.088 -295.824L300.156 1001.39C537.867 993.134 752.21 857.093 861.08 646.215L-292.283 50.7673ZM277.622 -296.216H15.7129V1001.78H277.622V-296.216ZM6.547 -296.151C243.392 -299.496 463.381 -171.874 577.71 36.6453L-560.44 660.68C-443.282 874.359 -217.846 1005.15 24.8787 1001.72L6.547 -296.151ZM577.826 36.8573C691.919 245.13 681.419 499.096 551.219 697.081L-533.285 -16.1205C-666.718 186.78 -677.472 447.041 -560.556 660.468L577.826 36.8573ZM548.393 701.342L586.885 643.802L-491.966 -77.9214L-530.458 -20.3814L548.393 701.342ZM589.386 640.035C468.888 822.903 263.529 931.43 44.9234 928.303L63.4877 -369.564C-160.538 -372.769 -370.984 -261.551 -494.467 -74.1549L589.386 640.035ZM54.2056 928.369H108.969V-369.631H54.2056V928.369ZM757.969 279.369V271.433H-540.031V279.369H757.969ZM108.969 -377.567H54.601V920.433H108.969V-377.567ZM48.1385 -377.534C-173.381 -375.328 -378.939 -262.977 -500.508 -78.3845L583.523 635.534C467.763 811.308 272.02 918.301 61.0635 920.401L48.1385 -377.534ZM-496.189 -84.8581L-535.08 -27.3182L540.312 699.548L579.204 642.008L-496.189 -84.8581ZM-539.475 -20.7297C-627.394 112.829 -664.316 273.736 -643.195 432.514L643.472 261.358C663.585 412.561 628.424 565.784 544.707 692.959L-539.475 -20.7297ZM-643.254 432.062C-622.237 590.911 -544.579 736.72 -424.721 842.777L435.428 -129.307C549.562 -28.316 623.516 110.534 643.531 261.809L-643.254 432.062ZM-424.967 842.558C-304.951 948.863 -150.758 1008.06 9.12614 1009.69L22.2971 -288.246C174.541 -286.701 321.377 -230.329 435.675 -129.089L-424.967 842.558ZM15.7116 1009.72H277.621V-288.279H15.7116V1009.72ZM280.774 1009.71C400.402 1009.13 517.382 976.29 619.528 915.023L-48.116 -198.105C49.1479 -256.443 160.536 -287.718 274.467 -288.272L280.774 1009.71ZM619.707 914.916C722.064 853.479 805.96 765.636 862.628 660.643L-279.612 44.1285C-225.651 -55.8482 -145.763 -139.495 -48.294 -197.998L619.707 914.916ZM204.306 995.501L204.309 995.501L378.713 -290.729L378.71 -290.729L204.306 995.501ZM174.842 -338.677H118.49V959.323H174.842V-338.677ZM767.49 310.323V149.606H-530.51V310.323H767.49ZM118.49 -499.394H110.554V798.606H118.49V-499.394ZM-538.446 149.606V212.305H759.554V149.606H-538.446ZM110.554 -436.695H94.283V861.305H110.554V-436.695ZM94.283 -436.695C263.294 -436.695 425.329 -369.543 544.778 -250.095L-373.047 667.73C-249.131 791.646 -81.0391 861.305 94.283 861.305V-436.695ZM544.778 -250.095C664.362 -130.51 731.38 31.5804 731.38 200.4H-566.62C-566.62 375.536 -497.094 543.683 -373.047 667.73L544.778 -250.095ZM731.38 200.4V162.701H-566.62V200.4H731.38ZM731.38 162.701C731.38 371.547 619.958 564.487 439.155 668.887L-209.909 -455.177C-430.617 -327.735 -566.62 -92.222 -566.62 162.701H731.38ZM439.129 668.902C258.26 773.33 35.4567 773.307 -145.364 668.922L503.58 -455.212C282.855 -582.633 10.8845 -582.656 -209.884 -455.192L439.129 668.902ZM-145.458 668.867C-326.195 564.491 -437.649 371.591 -437.649 162.701H860.351C860.351 -92.2658 724.309 -327.739 503.674 -455.157L-145.458 668.867ZM-437.649 162.701V200.004H860.351V162.701H-437.649ZM-437.649 200.004C-437.649 31.1469 -370.592 -131.095 -250.765 -250.774L666.491 667.618C790.786 543.477 860.351 375.178 860.351 200.004H-437.649ZM-251.049 -250.49C-131.661 -369.878 30.352 -437.09 199.445 -437.09V860.91C374.855 860.91 542.919 791.19 666.775 667.334L-251.049 -250.49ZM199.445 -437.09H182.778V860.91H199.445V-437.09ZM831.778 211.91V149.606H-466.222V211.91H831.778ZM182.778 -499.394H174.842V798.606H182.778V-499.394ZM-474.158 149.606L-474.158 310.323L823.842 310.323L823.842 149.606L-474.158 149.606Z" fill="white" mask="url(#path-3-inside-2_2_199)"/>
</svg>
