<svg width="378" height="356" viewBox="0 0 378 356" fill="none" xmlns="http://www.w3.org/2000/svg">
<path d="M222.352 344.875C222.352 351.019 217.374 356 211.234 356C205.095 356 200.116 351.019 200.116 344.875V322.617C200.116 273.47 160.294 233.623 111.176 233.623C62.0475 233.623 22.2352 273.462 22.2352 322.617V344.875C22.2352 351.019 17.2571 356 11.1176 356C4.97807 356 0 351.019 0 344.875V322.617C0 261.174 49.7661 211.373 111.176 211.373C172.575 211.373 222.352 261.18 222.352 322.617V344.875ZM205.603 202.429C201.149 206.658 194.111 206.475 189.885 202.017C185.659 197.56 185.843 190.52 190.297 186.291C210.81 166.812 237.961 155.751 266.824 155.751C328.222 155.751 378 205.556 378 266.977V289.249C378 295.393 373.022 300.374 366.882 300.374C360.743 300.374 355.765 295.393 355.765 289.249V266.977C355.765 217.84 315.942 178.002 266.824 178.002C243.715 178.002 222.026 186.837 205.606 202.43L205.603 202.429ZM111.174 178.001C77.4044 178.001 50.0272 150.606 50.0272 116.813C50.0272 83.0211 77.4044 55.6254 111.174 55.6254C144.943 55.6254 172.321 83.0211 172.321 116.813C172.321 150.606 144.943 178.001 111.174 178.001ZM111.174 155.751C132.665 155.751 150.085 138.318 150.085 116.813C150.085 95.3082 132.665 77.8756 111.174 77.8756C89.6833 77.8756 72.2624 95.3082 72.2624 116.813C72.2624 138.318 89.6833 155.751 111.174 155.751ZM266.82 122.376C233.051 122.376 205.673 94.9802 205.673 61.1879C205.673 27.3957 233.051 0 266.82 0C300.59 0 327.967 27.3957 327.967 61.1879C327.967 94.9802 300.59 122.376 266.82 122.376V122.376ZM266.82 100.126C288.311 100.126 305.732 82.693 305.732 61.1879C305.732 39.6828 288.311 22.2502 266.82 22.2502C245.329 22.2502 227.909 39.6828 227.909 61.1879C227.909 82.693 245.329 100.126 266.82 100.126V100.126Z" fill="white"/>
</svg>
